# xmcd
#
# Track frame offsets: 
#        150
#        17257
#        35045
#        48626
#        65924
#        81160
#        97795
#        113537
#        133038
#        149614
#        169757
#        185157
#
# Disc length: 2743 seconds
#
# Revision: 2
# Processed by: cddbd v1.5.2PL0 Copyright (c) Steve Scherf et al.
# Submitted via: ExactAudioCopy v1.0b3
#
DISCID=a70ab50c
DTITLE=鄧麗君 - 島國之情歌第一集.再見! 我的愛人 (K2HD)
DYEAR=2013
DGENRE=Pop
TTITLE0=情人的關懷
TTITLE1=請你別再找我
TTITLE2=不論今宵或明天
TTITLE3=相聚更甜蜜
TTITLE4=雨下的花朶
TTITLE5=冬之戀情
TTITLE6=再見! 我的愛人
TTITLE7=誰來愛我
TTITLE8=再來一杯
TTITLE9=夜霧下的姑娘
TTITLE10=逃避行
TTITLE11=愛的理想
EXTD=
EXTT0=
EXTT1=
EXTT2=
EXTT3=
EXTT4=
EXTT5=
EXTT6=
EXTT7=
EXTT8=
EXTT9=
EXTT10=
EXTT11=
PLAYORDER=
